<?xml version="1.0" encoding="UTF-8" standalone="no"?>
<!DOCTYPE svg PUBLIC "-//W3C//DTD SVG 1.1//EN"
 "http://www.w3.org/Graphics/SVG/1.1/DTD/svg11.dtd">
<!-- Generated by graphviz version 2.38.0 (20140413.2041)
 -->
<!-- Title: controllers_diagram Pages: 1 -->
<svg width="350pt" height="264pt"
 viewBox="0.00 0.00 349.50 263.50" xmlns="http://www.w3.org/2000/svg" xmlns:xlink="http://www.w3.org/1999/xlink">
<g id="graph0" class="graph" transform="scale(1 1) rotate(0) translate(67.5 147.5)">
<title>controllers_diagram</title>
<polygon fill="none" stroke="none" points="-67.5,116 -67.5,-147.5 282,-147.5 282,116 -67.5,116"/>
<!-- _diagram_info -->
<g id="node1" class="node"><title>_diagram_info</title>
<text text-anchor="start" x="72" y="0.4" font-family="Times,serif" font-size="13.00">Controllers diagram</text>
<text text-anchor="start" x="72" y="14.4" font-family="Times,serif" font-size="13.00">Date: Jul 24 2017 &#45; 18:27</text>
<text text-anchor="start" x="72" y="28.4" font-family="Times,serif" font-size="13.00">Migration version: 20170724222419</text>
<text text-anchor="start" x="72" y="42.4" font-family="Times,serif" font-size="13.00">Generated by RailRoady 1.5.3</text>
<text text-anchor="start" x="72" y="56.4" font-family="Times,serif" font-size="13.00">http://railroady.prestonlee.com</text>
</g>
<!-- ApplicationController -->
<g id="node2" class="node"><title>ApplicationController</title>
<path fill="none" stroke="black" d="M76,-49C76,-49 188,-49 188,-49 194,-49 200,-55 200,-61 200,-61 200,-131 200,-131 200,-137 194,-143 188,-143 188,-143 76,-143 76,-143 70,-143 64,-137 64,-131 64,-131 64,-61 64,-61 64,-55 70,-49 76,-49"/>
<text text-anchor="middle" x="132" y="-127.8" font-family="Times,serif" font-size="14.00">ApplicationController</text>
<polyline fill="none" stroke="black" points="64,-120 200,-120 "/>
<polyline fill="none" stroke="black" points="64,-96 200,-96 "/>
<polyline fill="none" stroke="black" points="64,-72 200,-72 "/>
<text text-anchor="start" x="72" y="-56.8" font-family="Times,serif" font-size="14.00">_layout</text>
</g>
<!-- PostsController -->
<g id="node3" class="node"><title>PostsController</title>
<path fill="none" stroke="black" d="M-51.5,111.5C-51.5,111.5 25.5,111.5 25.5,111.5 31.5,111.5 37.5,105.5 37.5,99.5 37.5,99.5 37.5,-89.5 37.5,-89.5 37.5,-95.5 31.5,-101.5 25.5,-101.5 25.5,-101.5 -51.5,-101.5 -51.5,-101.5 -57.5,-101.5 -63.5,-95.5 -63.5,-89.5 -63.5,-89.5 -63.5,99.5 -63.5,99.5 -63.5,105.5 -57.5,111.5 -51.5,111.5"/>
<text text-anchor="middle" x="-13" y="-86.3" font-family="Times,serif" font-size="14.00">PostsController</text>
<polyline fill="none" stroke="black" points="-63.5,-78.5 37.5,-78.5 "/>
<text text-anchor="start" x="-55.5" y="-63.3" font-family="Times,serif" font-size="14.00">create</text>
<text text-anchor="start" x="-55.5" y="-48.3" font-family="Times,serif" font-size="14.00">destroy</text>
<text text-anchor="start" x="-55.5" y="-33.3" font-family="Times,serif" font-size="14.00">edit</text>
<text text-anchor="start" x="-55.5" y="-18.3" font-family="Times,serif" font-size="14.00">index</text>
<text text-anchor="start" x="-55.5" y="-3.3" font-family="Times,serif" font-size="14.00">new</text>
<text text-anchor="start" x="-55.5" y="11.7" font-family="Times,serif" font-size="14.00">show</text>
<text text-anchor="start" x="-55.5" y="26.7" font-family="Times,serif" font-size="14.00">update</text>
<polyline fill="none" stroke="black" points="-63.5,34.5 37.5,34.5 "/>
<polyline fill="none" stroke="black" points="-63.5,58.5 37.5,58.5 "/>
<text text-anchor="start" x="-55.5" y="73.7" font-family="Times,serif" font-size="14.00">_layout</text>
<text text-anchor="start" x="-55.5" y="88.7" font-family="Times,serif" font-size="14.00">post_params</text>
<text text-anchor="start" x="-55.5" y="103.7" font-family="Times,serif" font-size="14.00">set_post</text>
</g>
</g>
</svg>
